<svg width="36" height="36" viewBox="0 0 36 36" fill="none" xmlns="http://www.w3.org/2000/svg">
<path fill-rule="evenodd" clip-rule="evenodd" d="M15.1505 8.09949C14.7112 7.66015 13.9988 7.66015 13.5595 8.09949L4.4545 17.2045C4.24353 17.4155 4.125 17.7016 4.125 18C4.125 18.2984 4.24353 18.5845 4.4545 18.7955L13.5595 27.9005C13.9988 28.3398 14.7112 28.3398 15.1505 27.9005C15.5898 27.4611 15.5898 26.7488 15.1505 26.3095L7.96599 19.125H30.75C31.3713 19.125 31.875 18.6213 31.875 18C31.875 17.3787 31.3713 16.875 30.75 16.875H7.96599L15.1505 9.69048C15.5898 9.25114 15.5898 8.53883 15.1505 8.09949Z" fill="white" fill-opacity="0.7"/>
<path fill-rule="evenodd" clip-rule="evenodd" d="M15.4157 7.83433C14.8299 7.24854 13.8801 7.24854 13.2943 7.83433L4.18934 16.9393C3.90804 17.2206 3.75 17.6022 3.75 18C3.75 18.3978 3.90804 18.7793 4.18934 19.0606L13.2943 28.1656C13.8801 28.7514 14.8299 28.7514 15.4157 28.1656C16.0014 27.5799 16.0014 26.6301 15.4157 26.0443L8.87132 19.5H30.75C31.5784 19.5 32.25 18.8284 32.25 18C32.25 17.1716 31.5784 16.5 30.75 16.5H8.87132L15.4157 9.95565C16.0014 9.36986 16.0014 8.42012 15.4157 7.83433ZM13.8247 8.36466C14.1176 8.07177 14.5924 8.07177 14.8853 8.36466C15.1782 8.65755 15.1782 9.13243 14.8853 9.42532L7.70083 16.6098C7.59357 16.7171 7.56149 16.8784 7.61954 17.0185C7.67758 17.1586 7.81432 17.25 7.96599 17.25H30.75C31.1642 17.25 31.5 17.5858 31.5 18C31.5 18.4142 31.1642 18.75 30.75 18.75H7.96599C7.81432 18.75 7.67758 18.8414 7.61954 18.9815C7.56149 19.1216 7.59357 19.2829 7.70083 19.3902L14.8853 26.5747C15.1782 26.8675 15.1782 27.3424 14.8853 27.6353C14.5924 27.9282 14.1176 27.9282 13.8247 27.6353L4.71967 18.5303C4.57902 18.3897 4.5 18.1989 4.5 18C4.5 17.8011 4.57902 17.6103 4.71967 17.4697L13.8247 8.36466Z" fill="white" fill-opacity="0.7"/>
</svg>
