<svg width="36" height="36" viewBox="0 0 36 36" fill="none" xmlns="http://www.w3.org/2000/svg">
<path fill-rule="evenodd" clip-rule="evenodd" d="M20.8495 8.09949C21.2888 7.66015 22.0012 7.66015 22.4405 8.09949L31.5455 17.2045C31.7565 17.4155 31.875 17.7016 31.875 18C31.875 18.2984 31.7565 18.5845 31.5455 18.7955L22.4405 27.9005C22.0012 28.3398 21.2888 28.3398 20.8495 27.9005C20.4102 27.4611 20.4102 26.7488 20.8495 26.3095L28.034 19.125H5.25C4.62868 19.125 4.125 18.6213 4.125 18C4.125 17.3787 4.62868 16.875 5.25 16.875H28.034L20.8495 9.69048C20.4102 9.25114 20.4102 8.53883 20.8495 8.09949Z" fill="white" fill-opacity="0.7"/>
<path fill-rule="evenodd" clip-rule="evenodd" d="M20.5843 7.83433C21.1701 7.24854 22.1199 7.24854 22.7057 7.83433L31.8107 16.9393C32.092 17.2206 32.25 17.6022 32.25 18C32.25 18.3978 32.092 18.7793 31.8107 19.0606L22.7057 28.1656C22.1199 28.7514 21.1701 28.7514 20.5843 28.1656C19.9986 27.5799 19.9986 26.6301 20.5843 26.0443L27.1287 19.5H5.25C4.42157 19.5 3.75 18.8284 3.75 18C3.75 17.1716 4.42157 16.5 5.25 16.5H27.1287L20.5843 9.95565C19.9986 9.36986 19.9986 8.42012 20.5843 7.83433ZM22.1753 8.36466C21.8824 8.07177 21.4076 8.07177 21.1147 8.36466C20.8218 8.65755 20.8218 9.13243 21.1147 9.42532L28.2992 16.6098C28.4064 16.7171 28.4385 16.8784 28.3805 17.0185C28.3224 17.1586 28.1857 17.25 28.034 17.25H5.25C4.83579 17.25 4.5 17.5858 4.5 18C4.5 18.4142 4.83579 18.75 5.25 18.75H28.034C28.1857 18.75 28.3224 18.8414 28.3805 18.9815C28.4385 19.1216 28.4064 19.2829 28.2992 19.3902L21.1147 26.5747C20.8218 26.8675 20.8218 27.3424 21.1147 27.6353C21.4076 27.9282 21.8824 27.9282 22.1753 27.6353L31.2803 18.5303C31.421 18.3897 31.5 18.1989 31.5 18C31.5 17.8011 31.421 17.6103 31.2803 17.4697L22.1753 8.36466Z" fill="white" fill-opacity="0.7"/>
</svg>
