<svg width="16" height="16" viewBox="0 0 16 16" fill="none" xmlns="http://www.w3.org/2000/svg">
<path d="M6.95153 1.6847L5.70918 0.752934C5.46481 0.569656 5.16758 0.470581 4.86212 0.470581H2.35294C1.7289 0.470581 1.13042 0.718479 0.689161 1.15974C0.247898 1.601 0 2.19948 0 2.82352V3.7647H4.77176C4.8357 3.76472 4.89897 3.75171 4.95771 3.72646C5.01645 3.70122 5.06943 3.66427 5.11341 3.61788L6.95153 1.6847ZM8.06118 1.88235L5.79576 4.26635C5.66394 4.40514 5.50527 4.51567 5.3294 4.59123C5.15352 4.66679 4.96412 4.7058 4.77271 4.70588H0V11.2941C0 11.9181 0.247898 12.5166 0.689161 12.9579C1.13042 13.3992 1.7289 13.6471 2.35294 13.6471H7.15294C6.61127 12.5867 6.4517 11.372 6.70114 10.2077C6.95057 9.04347 7.59376 8.00078 8.5223 7.25541C9.45083 6.51004 10.6079 6.10756 11.7986 6.11581C12.9893 6.12406 14.1407 6.54253 15.0588 7.3007V4.23529L15.0541 4.08093C15.0149 3.48484 14.7505 2.92597 14.3144 2.51768C13.8783 2.10939 13.3033 1.88225 12.7059 1.88235H8.06118ZM16 11.2941C16 12.4174 15.5538 13.4946 14.7595 14.2889C13.9652 15.0832 12.888 15.5294 11.7647 15.5294C10.6414 15.5294 9.56417 15.0832 8.7699 14.2889C7.97563 13.4946 7.52941 12.4174 7.52941 11.2941C7.52941 10.1708 7.97563 9.09358 8.7699 8.29931C9.56417 7.50503 10.6414 7.05882 11.7647 7.05882C12.888 7.05882 13.9652 7.50503 14.7595 8.29931C15.5538 9.09358 16 10.1708 16 11.2941ZM12.2353 9.41176C12.2353 9.28695 12.1857 9.16725 12.0975 9.079C12.0092 8.99075 11.8895 8.94117 11.7647 8.94117C11.6399 8.94117 11.5202 8.99075 11.4319 9.079C11.3437 9.16725 11.2941 9.28695 11.2941 9.41176V10.8235H9.88235C9.75755 10.8235 9.63785 10.8731 9.5496 10.9614C9.46134 11.0496 9.41177 11.1693 9.41177 11.2941C9.41177 11.4189 9.46134 11.5386 9.5496 11.6269C9.63785 11.7151 9.75755 11.7647 9.88235 11.7647H11.2941V13.1765C11.2941 13.3013 11.3437 13.421 11.4319 13.5092C11.5202 13.5975 11.6399 13.6471 11.7647 13.6471C11.8895 13.6471 12.0092 13.5975 12.0975 13.5092C12.1857 13.421 12.2353 13.3013 12.2353 13.1765V11.7647H13.6471C13.7719 11.7647 13.8916 11.7151 13.9798 11.6269C14.0681 11.5386 14.1176 11.4189 14.1176 11.2941C14.1176 11.1693 14.0681 11.0496 13.9798 10.9614C13.8916 10.8731 13.7719 10.8235 13.6471 10.8235H12.2353V9.41176Z" fill="white"/>
</svg>
