<svg width="153" height="44" viewBox="0 0 153 44" fill="none" xmlns="http://www.w3.org/2000/svg">
<circle cx="22" cy="22" r="22" fill="#3B71FE"/>
<path d="M9.50977 17.7896C9.50977 14.0398 12.5496 11 16.2994 11H35.0517V11C35.0517 14.7498 32.0119 17.7896 28.2621 17.7896H9.50977V17.7896Z" fill="white"/>
<path d="M13.3895 35.3506L16.9529 24.0973C18.0849 20.5225 21.9006 18.5421 25.4754 19.6741V19.6741L21.9121 30.9274C20.7801 34.5022 16.9644 36.4826 13.3895 35.3506V35.3506Z" fill="white"/>
<path d="M62.6567 31.1687C61.3098 31.1687 60.2306 30.8406 59.419 30.1844C58.6074 29.5283 58.2016 28.3627 58.2016 26.6877V21.093H56V18.3215H58.2016L58.5902 14.8766H61.5171V18.3215H64.9879V21.093H61.5171V26.7136C61.5171 27.3353 61.6466 27.767 61.9056 28.0087C62.1819 28.2332 62.6481 28.3454 63.3043 28.3454H64.9102V31.1687H62.6567Z" fill="#3B71FE"/>
<path d="M67.8344 31.1687V18.3215H70.7872L71.098 20.7304C71.5643 19.9015 72.1945 19.2453 72.9888 18.7618C73.8004 18.2611 74.7502 18.0107 75.838 18.0107V21.5074H74.9056C74.1803 21.5074 73.5328 21.6196 72.9629 21.8441C72.3931 22.0686 71.9441 22.4571 71.6161 23.0097C71.3052 23.5623 71.1498 24.3307 71.1498 25.3149V31.1687H67.8344Z" fill="#3B71FE"/>
<path d="M82.5332 31.4795C81.4281 31.4795 80.5215 31.3069 79.8135 30.9615C79.1055 30.5989 78.5789 30.124 78.2335 29.5369C77.8882 28.9498 77.7155 28.3023 77.7155 27.5943C77.7155 26.4028 78.1817 25.4358 79.1142 24.6933C80.0466 23.9508 81.4453 23.5795 83.3102 23.5795H86.5739V23.2687C86.5739 22.3881 86.3235 21.7405 85.8227 21.3261C85.3219 20.9117 84.7003 20.7044 83.9578 20.7044C83.2843 20.7044 82.6972 20.8685 82.1965 21.1966C81.6957 21.5074 81.3849 21.9736 81.264 22.5953H78.0263C78.1126 21.6628 78.4235 20.8512 78.9588 20.1605C79.5113 19.4698 80.2193 18.9431 81.0827 18.5805C81.9461 18.2006 82.9131 18.0107 83.9837 18.0107C85.8141 18.0107 87.2559 18.4683 88.3093 19.3835C89.3626 20.2987 89.8893 21.5937 89.8893 23.2687V31.1687H87.066L86.7552 29.0966C86.3753 29.7873 85.84 30.3571 85.1493 30.8061C84.4758 31.255 83.6038 31.4795 82.5332 31.4795ZM83.2843 28.8894C84.2341 28.8894 84.968 28.5785 85.486 27.9569C86.0213 27.3353 86.358 26.5669 86.4961 25.6517H83.6729C82.7922 25.6517 82.1619 25.8157 81.782 26.1438C81.4022 26.4546 81.2122 26.8431 81.2122 27.3094C81.2122 27.8101 81.4022 28.1987 81.782 28.4749C82.1619 28.7512 82.6627 28.8894 83.2843 28.8894Z" fill="#3B71FE"/>
<path d="M96.1445 31.1687L91.4304 18.3215H94.9012L98.1648 28.0346L101.428 18.3215H104.899L100.159 31.1687H96.1445Z" fill="#3B71FE"/>
<path d="M112.6 31.4795C111.305 31.4795 110.157 31.2032 109.155 30.6507C108.154 30.0981 107.368 29.3211 106.798 28.3195C106.229 27.318 105.944 26.1611 105.944 24.8487C105.944 23.5191 106.22 22.3363 106.772 21.3002C107.342 20.2641 108.119 19.4612 109.104 18.8913C110.105 18.3042 111.279 18.0107 112.626 18.0107C113.887 18.0107 115.001 18.287 115.968 18.8395C116.935 19.3921 117.686 20.1519 118.221 21.1189C118.774 22.0686 119.05 23.1306 119.05 24.3048C119.05 24.4947 119.041 24.6933 119.024 24.9005C119.024 25.1077 119.015 25.3236 118.998 25.5481H109.233C109.302 26.5496 109.648 27.3353 110.269 27.9051C110.908 28.4749 111.677 28.7599 112.574 28.7599C113.248 28.7599 113.809 28.6131 114.258 28.3195C114.724 28.0087 115.07 27.6116 115.294 27.1281H118.661C118.42 27.9396 118.014 28.6822 117.444 29.3556C116.891 30.0118 116.201 30.5298 115.372 30.9097C114.56 31.2896 113.636 31.4795 112.6 31.4795ZM112.626 20.7044C111.815 20.7044 111.098 20.9376 110.476 21.4038C109.855 21.8528 109.458 22.5435 109.285 23.4759H115.683C115.631 22.6298 115.32 21.9564 114.75 21.4556C114.18 20.9548 113.472 20.7044 112.626 20.7044Z" fill="#3B71FE"/>
<path d="M121.838 31.1687V12.5195H125.154V31.1687H121.838Z" fill="#3B71FE"/>
<path d="M134.784 31.4795C133.489 31.4795 132.34 31.2032 131.339 30.6507C130.337 30.0981 129.552 29.3211 128.982 28.3195C128.412 27.318 128.127 26.1611 128.127 24.8487C128.127 23.5191 128.403 22.3363 128.956 21.3002C129.526 20.2641 130.303 19.4612 131.287 18.8913C132.288 18.3042 133.463 18.0107 134.81 18.0107C136.07 18.0107 137.184 18.287 138.151 18.8395C139.118 19.3921 139.869 20.1519 140.404 21.1189C140.957 22.0686 141.233 23.1306 141.233 24.3048C141.233 24.4947 141.225 24.6933 141.207 24.9005C141.207 25.1077 141.199 25.3236 141.181 25.5481H131.416C131.486 26.5496 131.831 27.3353 132.453 27.9051C133.091 28.4749 133.86 28.7599 134.758 28.7599C135.431 28.7599 135.992 28.6131 136.441 28.3195C136.908 28.0087 137.253 27.6116 137.477 27.1281H140.845C140.603 27.9396 140.197 28.6822 139.627 29.3556C139.075 30.0118 138.384 30.5298 137.555 30.9097C136.744 31.2896 135.82 31.4795 134.784 31.4795ZM134.81 20.7044C133.998 20.7044 133.281 20.9376 132.66 21.4038C132.038 21.8528 131.641 22.5435 131.468 23.4759H137.866C137.814 22.6298 137.503 21.9564 136.934 21.4556C136.364 20.9548 135.656 20.7044 134.81 20.7044Z" fill="#3B71FE"/>
<path d="M144.022 31.1687V18.3215H146.974L147.285 20.7304C147.752 19.9015 148.382 19.2453 149.176 18.7618C149.988 18.2611 150.937 18.0107 152.025 18.0107V21.5074H151.093C150.368 21.5074 149.72 21.6196 149.15 21.8441C148.58 22.0686 148.131 22.4571 147.803 23.0097C147.492 23.5623 147.337 24.3307 147.337 25.3149V31.1687H144.022Z" fill="#3B71FE"/>
</svg>
