<svg width="22" height="16" viewBox="0 0 22 16" fill="none" xmlns="http://www.w3.org/2000/svg">
<path fill-rule="evenodd" clip-rule="evenodd" d="M0.4375 1.5C0.4375 1.05127 0.801269 0.6875 1.25 0.6875H20.75C21.1987 0.6875 21.5625 1.05127 21.5625 1.5C21.5625 1.94873 21.1987 2.3125 20.75 2.3125H1.25C0.801269 2.3125 0.4375 1.94873 0.4375 1.5Z" fill="#232323"/>
<path fill-rule="evenodd" clip-rule="evenodd" d="M0.4375 8C0.4375 7.55127 0.801269 7.1875 1.25 7.1875H20.75C21.1987 7.1875 21.5625 7.55127 21.5625 8C21.5625 8.44873 21.1987 8.8125 20.75 8.8125H1.25C0.801269 8.8125 0.4375 8.44873 0.4375 8Z" fill="#232323"/>
<path fill-rule="evenodd" clip-rule="evenodd" d="M0.4375 14.5C0.4375 14.0513 0.801269 13.6875 1.25 13.6875H20.75C21.1987 13.6875 21.5625 14.0513 21.5625 14.5C21.5625 14.9487 21.1987 15.3125 20.75 15.3125H1.25C0.801269 15.3125 0.4375 14.9487 0.4375 14.5Z" fill="#232323"/>
</svg>
