<svg width="70" height="70" viewBox="0 0 70 70" fill="none" xmlns="http://www.w3.org/2000/svg">
<rect width="70" height="70" rx="35" fill="#0AA02B" fill-opacity="0.2"/>
<rect x="10" y="10" width="50" height="50" rx="25" fill="#4CBB7F"/>
<path fill-rule="evenodd" clip-rule="evenodd" d="M43.0992 29.4388C43.3796 29.7198 43.3792 30.1749 43.0983 30.4553L32.9723 40.5634C32.6916 40.8437 32.2368 40.8435 31.9563 40.5629L26.9022 35.5089C26.6216 35.2282 26.6216 34.7731 26.9022 34.4924C27.1829 34.2117 27.638 34.2117 27.9187 34.4924L32.465 39.0387L42.0827 29.4379C42.3636 29.1575 42.8187 29.1579 43.0992 29.4388Z" fill="white"/>
<path fill-rule="evenodd" clip-rule="evenodd" d="M41.9134 29.2684C42.288 28.8945 42.8948 28.895 43.2687 29.2696C43.6426 29.6442 43.6421 30.2509 43.2675 30.6249L33.1416 40.7329C32.7672 41.1066 32.1609 41.1064 31.7869 40.7324L26.7328 35.6783C26.3586 35.3041 26.3586 34.6973 26.7328 34.323C27.1071 33.9488 27.7139 33.9488 28.0881 34.323L32.4651 38.7L41.9134 29.2684ZM42.9296 29.6081C42.7426 29.4208 42.4392 29.4205 42.252 29.6075L32.6342 39.2082C32.5407 39.3017 32.3891 39.3016 32.2956 39.2081L27.7493 34.6618C27.5622 34.4747 27.2588 34.4747 27.0717 34.6618C26.8845 34.849 26.8845 35.1524 27.0717 35.3395L32.1257 40.3935C32.3127 40.5805 32.6159 40.5807 32.8031 40.3938L42.929 30.2857C43.1163 30.0988 43.1166 29.7954 42.9296 29.6081Z" fill="white"/>
</svg>
